<?xml version="1.0" standalone="no"?>
<!DOCTYPE svg PUBLIC "-//W3C//DTD SVG 20010904//EN"
 "http://www.w3.org/TR/2001/REC-SVG-20010904/DTD/svg10.dtd">
<svg version="1.0" xmlns="http://www.w3.org/2000/svg"
 width="430.000000pt" height="446.000000pt" viewBox="0 0 430.000000 446.000000"
 preserveAspectRatio="xMidYMid meet">
<metadata>
Created by potrace 1.15, written by Peter Selinger 2001-2017
</metadata>
<g transform="translate(0.000000,446.000000) scale(0.100000,-0.100000)"
fill="#000000" stroke="none">
<path d="M1980 3253 c-19 -2 -44 -8 -55 -13 -11 -5 -45 -14 -75 -21 -30 -6
-59 -15 -65 -19 -5 -4 -29 -14 -52 -21 -24 -6 -43 -15 -43 -19 0 -4 -15 -13
-32 -21 -18 -7 -37 -19 -41 -26 -4 -7 -14 -13 -20 -13 -7 0 -20 -8 -29 -17 -8
-10 -27 -27 -42 -38 -50 -38 -123 -111 -181 -180 -32 -38 -62 -71 -67 -73 -4
-2 -8 -8 -8 -13 0 -5 -18 -35 -39 -67 -22 -31 -45 -69 -52 -84 -7 -16 -16 -28
-20 -28 -4 0 -10 -13 -14 -30 -4 -16 -11 -30 -15 -30 -5 0 -15 -18 -21 -40 -7
-22 -15 -40 -19 -40 -4 0 -13 -18 -20 -40 -7 -22 -17 -40 -22 -40 -4 0 -8 -7
-8 -15 0 -16 -51 -147 -61 -155 -3 -3 -11 -27 -19 -55 -7 -27 -16 -54 -21 -60
-4 -5 -13 -38 -19 -72 -7 -35 -16 -63 -20 -63 -4 0 -13 -36 -20 -80 -7 -44
-16 -80 -19 -80 -4 0 -13 -42 -20 -92 -7 -51 -17 -97 -21 -103 -4 -5 -13 -48
-19 -95 -6 -47 -16 -112 -21 -145 -5 -33 -12 -113 -16 -177 -4 -65 -11 -118
-15 -118 -5 0 -9 -67 -9 -150 0 -121 3 -148 13 -144 8 3 19 33 25 67 24 137
34 183 42 202 5 11 14 49 20 84 6 35 15 71 20 80 4 9 14 43 20 76 7 32 16 66
20 75 5 8 14 43 21 78 6 34 15 62 18 62 4 0 13 27 20 60 8 33 17 60 22 60 5 0
9 9 9 19 0 11 5 32 12 48 6 15 12 30 12 33 1 3 4 10 7 15 3 6 12 33 18 60 14
54 41 118 54 123 4 2 7 11 7 21 0 9 8 32 18 51 9 19 24 54 31 78 8 23 17 42
21 42 4 0 13 18 20 40 7 22 16 40 20 40 4 0 10 13 13 29 3 16 13 36 22 44 8 9
15 22 15 30 0 8 9 24 19 36 11 13 23 36 26 52 4 16 10 29 15 29 5 0 14 16 21
35 7 19 16 35 20 35 4 0 12 14 19 30 7 17 16 30 21 30 5 0 9 5 9 12 0 6 11 26
25 44 14 18 25 37 25 43 0 6 4 11 8 11 5 0 16 16 25 35 9 19 21 35 27 35 5 0
10 7 10 15 0 8 9 20 20 27 11 7 20 18 20 25 0 7 6 16 13 20 7 4 26 26 43 48
16 22 47 58 69 81 22 22 50 51 62 65 23 26 128 125 159 149 61 47 94 70 103
70 6 0 11 9 11 20 0 11 -3 19 -7 18 -5 0 -24 -3 -43 -5z"/>
<path d="M2364 1215 c-100 -76 -127 -101 -142 -133 -9 -20 -20 -38 -24 -40
-10 -5 -10 -122 0 -122 4 0 13 -12 20 -27 23 -53 66 -70 180 -72 65 -1 102 2
102 8 0 11 -13 15 -82 26 -21 3 -38 10 -38 15 0 6 -7 10 -14 10 -26 0 -68 48
-76 86 -12 53 9 154 31 154 5 0 9 5 9 12 0 7 16 29 36 49 36 37 34 61 -2 34z"/>
</g>
</svg>
